<svg width="600" height="62" viewBox="0 0 600 62" fill="none" xmlns="http://www.w3.org/2000/svg">
<circle cx="30.5" cy="15.5" r="13" stroke="white" stroke-width="5"/>
<circle cx="210.5" cy="15.5" r="13" stroke="white" stroke-width="5"/>
<circle cx="388.5" cy="15.5" r="13" stroke="white" stroke-width="5"/>
<circle cx="564.5" cy="15.5" r="13" stroke="white" stroke-width="5"/>
<line x1="45" y1="17" x2="195" y2="17" stroke="white" stroke-width="2"/>
<line x1="224" y1="17" x2="374" y2="17" stroke="white" stroke-width="2"/>
<line x1="402" y1="17" x2="552" y2="17" stroke="white" stroke-width="2"/>
<path d="M3.82 57.42H1.78V45.92C1.78 45.3733 1.69333 44.9733 1.52 44.72C1.34667 44.4667 1.04 44.3267 0.6 44.3C0.32 44.3 0.146667 44.2333 0.08 44.1C0.0266667 43.9533 0 43.8133 0 43.68C0 43.56 0.0533333 43.4467 0.16 43.34C0.266667 43.2333 0.38 43.18 0.5 43.18H10.32L10.44 45.84C10.44 46 10.3867 46.12 10.28 46.2C10.1733 46.28 10.0533 46.3267 9.92 46.34C9.78667 46.3533 9.66 46.3267 9.54 46.26C9.42 46.18 9.34667 46.0533 9.32 45.88C9.32 45.88 9.28667 45.76 9.22 45.52C9.15333 45.2667 9.06667 45.06 8.96 44.9C8.88 44.78 8.74 44.6867 8.54 44.62C8.35333 44.5533 8.04667 44.52 7.62 44.52H4.9C4.42 44.52 4.12 44.62 4 44.82C3.88 45.02 3.82 45.3067 3.82 45.68V49.32H6.76C6.93333 49.32 7.09333 49.3067 7.24 49.28C7.4 49.2533 7.54667 49.22 7.68 49.18C7.96 49.1 8.16667 48.98 8.3 48.82C8.44667 48.6467 8.52 48.3333 8.52 47.88C8.52 47.76 8.57333 47.6733 8.68 47.62C8.78667 47.5667 8.90667 47.54 9.04 47.54C9.17333 47.54 9.29333 47.5733 9.4 47.64C9.52 47.6933 9.58 47.7667 9.58 47.86V52.18C9.58 52.2733 9.52667 52.3533 9.42 52.42C9.31333 52.4733 9.19333 52.5 9.06 52.5C8.94 52.5 8.82667 52.4733 8.72 52.42C8.61333 52.3533 8.56 52.2467 8.56 52.1C8.56 52.1 8.52667 51.9733 8.46 51.72C8.39333 51.4533 8.28 51.22 8.12 51.02C8 50.9 7.85333 50.82 7.68 50.78C7.50667 50.7267 7.2 50.7 6.76 50.7H3.82V57.42ZM12.5208 57.42V50.3C12.5208 50.1267 12.5141 49.9733 12.5008 49.84C12.5008 49.6933 12.4874 49.56 12.4608 49.44C12.4474 49.32 12.4074 49.22 12.3408 49.14C12.2874 49.0467 12.2141 48.96 12.1208 48.88C12.0274 48.8267 11.9141 48.7867 11.7808 48.76C11.6608 48.72 11.5408 48.7 11.4208 48.7C11.2208 48.7 11.0674 48.64 10.9608 48.52C10.8674 48.4 10.8208 48.26 10.8208 48.1C10.8208 47.9667 10.8674 47.8467 10.9608 47.74C11.0674 47.6333 11.1874 47.58 11.3208 47.58H13.4408C13.7608 47.58 14.0141 47.6867 14.2008 47.9C14.4008 48.1133 14.5008 48.2733 14.5008 48.38V49.1C14.5141 49.02 14.5874 48.8867 14.7208 48.7C14.8674 48.5133 15.0674 48.3267 15.3208 48.14C15.5741 47.9533 15.8741 47.7933 16.2208 47.66C16.5808 47.5133 16.9941 47.44 17.4608 47.44H18.5608V49.44C17.2141 49.24 16.2008 49.3867 15.5208 49.88C14.8408 50.3733 14.5008 51.26 14.5008 52.54V57.42H12.5208ZM25.7738 57.42V56.34C25.4138 56.74 24.9604 57.0533 24.4138 57.28C23.8804 57.52 23.1738 57.64 22.2938 57.64C21.4804 57.64 20.8204 57.3867 20.3138 56.88C19.8071 56.3733 19.5538 55.72 19.5538 54.92C19.5538 54.2533 19.7204 53.6933 20.0538 53.24C20.4004 52.7867 20.8338 52.42 21.3538 52.14C21.8738 51.86 22.4404 51.66 23.0538 51.54C23.6804 51.42 24.2738 51.36 24.8338 51.36C24.9138 51.36 25.0071 51.36 25.1138 51.36C25.2204 51.36 25.3204 51.3533 25.4138 51.34C25.5071 51.34 25.5871 51.34 25.6538 51.34C25.7204 51.3267 25.7604 51.32 25.7738 51.32V50.8C25.7738 50.56 25.7404 50.3133 25.6738 50.06C25.6071 49.7933 25.5004 49.56 25.3538 49.36C25.1938 49.1467 24.9804 48.9733 24.7138 48.84C24.4471 48.7067 24.1138 48.64 23.7138 48.64C23.1138 48.64 22.6471 48.7867 22.3138 49.08C21.9804 49.3733 21.8138 49.8 21.8138 50.36H19.6738C19.6738 50.0267 19.7471 49.6867 19.8938 49.34C20.0538 48.98 20.3071 48.6533 20.6538 48.36C20.9871 48.08 21.4138 47.8467 21.9338 47.66C22.4538 47.4733 23.0738 47.38 23.7938 47.38C25.0338 47.38 26.0004 47.6933 26.6938 48.32C27.3871 48.9333 27.7338 49.78 27.7338 50.86V57.42H25.7738ZM25.7738 53.9V52.58C25.5071 52.58 25.1804 52.5933 24.7938 52.62C24.4071 52.6333 24.0271 52.68 23.6538 52.76C23.1071 52.8933 22.6404 53.1067 22.2538 53.4C21.8671 53.6933 21.6738 54.1333 21.6738 54.72C21.6738 54.8533 21.6871 55.0067 21.7138 55.18C21.7538 55.34 21.8271 55.4867 21.9338 55.62C22.0404 55.7667 22.1871 55.8867 22.3738 55.98C22.5604 56.0733 22.8071 56.12 23.1138 56.12C23.4471 56.12 23.7671 56.0733 24.0738 55.98C24.3938 55.8733 24.6804 55.72 24.9338 55.52C25.1871 55.3333 25.3871 55.1067 25.5338 54.84C25.6938 54.56 25.7738 54.2467 25.7738 53.9ZM32.5444 48.44V49.58C32.5977 49.4467 32.711 49.26 32.8844 49.02C33.0577 48.78 33.2844 48.5467 33.5644 48.32C33.8577 48.08 34.2044 47.8733 34.6044 47.7C35.0044 47.5133 35.4777 47.4133 36.0244 47.4C36.9844 47.3867 37.751 47.6467 38.3244 48.18C38.8977 48.7 39.1844 49.32 39.1844 50.04V57.42H37.2244V51.02C37.2244 50.5 37.1044 50.04 36.8644 49.64C36.6377 49.2267 36.1844 49.0267 35.5044 49.04C35.171 49.0533 34.8244 49.1733 34.4644 49.4C34.1177 49.6133 33.7977 49.8867 33.5044 50.22C33.2244 50.5667 32.991 50.9533 32.8044 51.38C32.6177 51.7933 32.5244 52.2067 32.5244 52.62V57.42H30.5644V50.3C30.5644 50.1267 30.5577 49.9733 30.5444 49.84C30.5444 49.6933 30.531 49.56 30.5044 49.44C30.491 49.32 30.451 49.22 30.3844 49.14C30.331 49.0467 30.2577 48.96 30.1644 48.88C30.071 48.8133 29.9577 48.7667 29.8244 48.74C29.7044 48.7 29.5844 48.68 29.4644 48.68C29.2644 48.68 29.111 48.6267 29.0044 48.52C28.911 48.4 28.8644 48.26 28.8644 48.1C28.8644 47.9667 28.911 47.8467 29.0044 47.74C29.111 47.6333 29.231 47.58 29.3644 47.58H31.4844C31.8044 47.58 32.0577 47.6933 32.2444 47.92C32.4444 48.1333 32.5444 48.3067 32.5444 48.44ZM49.7906 56.92C49.4973 57.08 49.0173 57.2467 48.3506 57.42C47.684 57.5933 46.9506 57.66 46.1506 57.62C45.4306 57.6067 44.7573 57.4733 44.1306 57.22C43.504 56.98 42.9506 56.6333 42.4706 56.18C42.004 55.7267 41.6373 55.1733 41.3706 54.52C41.104 53.8533 40.9706 53.0867 40.9706 52.22C40.9706 51.4467 41.104 50.76 41.3706 50.16C41.6373 49.5467 41.9973 49.04 42.4506 48.64C42.9173 48.2267 43.4573 47.9133 44.0706 47.7C44.6973 47.4867 45.3706 47.38 46.0906 47.38C46.6373 47.38 47.1506 47.46 47.6306 47.62C48.124 47.7667 48.5573 47.9733 48.9306 48.24C49.2906 48.52 49.584 48.8467 49.8106 49.22C50.0506 49.58 50.1906 49.9733 50.2306 50.4H48.0506C48.0506 49.9067 47.884 49.4933 47.5506 49.16C47.2306 48.8267 46.6773 48.66 45.8906 48.66C45.5173 48.66 45.1573 48.7333 44.8106 48.88C44.4773 49.0133 44.1773 49.2267 43.9106 49.52C43.644 49.8 43.4306 50.1667 43.2706 50.62C43.124 51.0733 43.0506 51.6067 43.0506 52.22C43.0506 53.42 43.3506 54.38 43.9506 55.1C44.5506 55.82 45.4506 56.2267 46.6506 56.32C46.8106 56.3467 47.1573 56.3333 47.6906 56.28C48.2373 56.2133 48.804 56.06 49.3906 55.82C49.5506 55.7533 49.6906 55.76 49.8106 55.84C49.944 55.9067 50.0373 56.0067 50.0906 56.14C50.1306 56.26 50.1306 56.4 50.0906 56.56C50.0506 56.7067 49.9506 56.8267 49.7906 56.92ZM56.6584 57.62C55.9384 57.62 55.2651 57.5 54.6384 57.26C54.0118 57.02 53.4584 56.66 52.9784 56.18C52.5118 55.7133 52.1451 55.14 51.8784 54.46C51.6118 53.78 51.4784 53.0067 51.4784 52.14C51.4784 51.38 51.5984 50.7067 51.8384 50.12C52.0918 49.52 52.4384 49.02 52.8784 48.62C53.3318 48.22 53.8584 47.9133 54.4584 47.7C55.0718 47.4867 55.7384 47.38 56.4584 47.38C56.9784 47.38 57.4984 47.48 58.0184 47.68C58.5518 47.8667 59.0251 48.14 59.4384 48.5C59.8651 48.8733 60.2118 49.3333 60.4784 49.88C60.7451 50.4133 60.8784 51.0267 60.8784 51.72V52.86H53.5784C53.6718 53.86 54.0118 54.66 54.5984 55.26C55.1984 55.8467 56.0518 56.1933 57.1584 56.3C57.3451 56.3267 57.7051 56.3133 58.2384 56.26C58.7851 56.2067 59.3384 56.06 59.8984 55.82C60.0584 55.7533 60.1984 55.7533 60.3184 55.82C60.4518 55.8867 60.5451 55.98 60.5984 56.1C60.6518 56.2333 60.6584 56.3733 60.6184 56.52C60.5784 56.6667 60.4718 56.7867 60.2984 56.88C59.7918 57.16 59.2584 57.3533 58.6984 57.46C58.1384 57.5667 57.4584 57.62 56.6584 57.62ZM56.3984 48.6C55.7451 48.6 55.1318 48.82 54.5584 49.26C53.9984 49.7 53.6718 50.4333 53.5784 51.46H58.8384C58.8384 50.42 58.5851 49.6867 58.0784 49.26C57.5718 48.82 57.0118 48.6 56.3984 48.6Z" fill="white"/>
<path d="M194.96 44.32V57.42H192.9V46.04C192.9 45.5333 192.8 45.1333 192.6 44.84C192.4 44.5467 192.073 44.3867 191.62 44.36C191.42 44.36 191.273 44.3067 191.18 44.2C191.087 44.0933 191.04 43.96 191.04 43.8C191.04 43.6667 191.093 43.5467 191.2 43.44C191.32 43.3333 191.447 43.28 191.58 43.28H193.92C194.28 43.28 194.54 43.4 194.7 43.64C194.873 43.8667 194.96 44.0933 194.96 44.32ZM203.168 56.08V57.42C202.874 57.4867 202.541 57.5333 202.168 57.56C201.794 57.6 201.508 57.62 201.308 57.62C200.628 57.62 200.088 57.5533 199.688 57.42C199.288 57.2867 198.981 57.0867 198.768 56.82C198.554 56.5667 198.414 56.2533 198.348 55.88C198.294 55.5067 198.268 55.08 198.268 54.6V48.96H196.668V47.58H198.268V45.98L200.208 44.16V47.58H202.968V48.96H200.228V54.96C200.228 55.2533 200.254 55.4867 200.308 55.66C200.374 55.82 200.474 55.94 200.608 56.02C200.808 56.14 201.134 56.2133 201.588 56.24C202.041 56.2533 202.568 56.2 203.168 56.08ZM210.68 57.42V56.34C210.32 56.74 209.867 57.0533 209.32 57.28C208.787 57.52 208.08 57.64 207.2 57.64C206.387 57.64 205.727 57.3867 205.22 56.88C204.713 56.3733 204.46 55.72 204.46 54.92C204.46 54.2533 204.627 53.6933 204.96 53.24C205.307 52.7867 205.74 52.42 206.26 52.14C206.78 51.86 207.347 51.66 207.96 51.54C208.587 51.42 209.18 51.36 209.74 51.36C209.82 51.36 209.913 51.36 210.02 51.36C210.127 51.36 210.227 51.3533 210.32 51.34C210.413 51.34 210.493 51.34 210.56 51.34C210.627 51.3267 210.667 51.32 210.68 51.32V50.8C210.68 50.56 210.647 50.3133 210.58 50.06C210.513 49.7933 210.407 49.56 210.26 49.36C210.1 49.1467 209.887 48.9733 209.62 48.84C209.353 48.7067 209.02 48.64 208.62 48.64C208.02 48.64 207.553 48.7867 207.22 49.08C206.887 49.3733 206.72 49.8 206.72 50.36H204.58C204.58 50.0267 204.653 49.6867 204.8 49.34C204.96 48.98 205.213 48.6533 205.56 48.36C205.893 48.08 206.32 47.8467 206.84 47.66C207.36 47.4733 207.98 47.38 208.7 47.38C209.94 47.38 210.907 47.6933 211.6 48.32C212.293 48.9333 212.64 49.78 212.64 50.86V57.42H210.68ZM210.68 53.9V52.58C210.413 52.58 210.087 52.5933 209.7 52.62C209.313 52.6333 208.933 52.68 208.56 52.76C208.013 52.8933 207.547 53.1067 207.16 53.4C206.773 53.6933 206.58 54.1333 206.58 54.72C206.58 54.8533 206.593 55.0067 206.62 55.18C206.66 55.34 206.733 55.4867 206.84 55.62C206.947 55.7667 207.093 55.8867 207.28 55.98C207.467 56.0733 207.713 56.12 208.02 56.12C208.353 56.12 208.673 56.0733 208.98 55.98C209.3 55.8733 209.587 55.72 209.84 55.52C210.093 55.3333 210.293 55.1067 210.44 54.84C210.6 54.56 210.68 54.2467 210.68 53.9ZM217.571 44.04V57.42H215.591V45.7C215.591 45.54 215.584 45.3933 215.571 45.26C215.571 45.1133 215.557 44.98 215.531 44.86C215.517 44.74 215.477 44.64 215.411 44.56C215.357 44.4667 215.284 44.38 215.191 44.3C215.097 44.2333 214.984 44.18 214.851 44.14C214.731 44.1 214.611 44.08 214.491 44.08C214.291 44.08 214.137 44.0267 214.031 43.92C213.937 43.8133 213.891 43.68 213.891 43.52C213.891 43.3867 213.937 43.2667 214.031 43.16C214.137 43.0533 214.257 43 214.391 43H216.511C216.831 43 217.084 43.12 217.271 43.36C217.471 43.5867 217.571 43.8133 217.571 44.04ZM219.201 48.58C219.095 48.58 218.988 48.5333 218.881 48.44C218.775 48.3333 218.721 48.2067 218.721 48.06C218.721 47.9 218.775 47.78 218.881 47.7C218.975 47.62 219.081 47.58 219.201 47.58H221.741L224.681 54.3L227.341 47.58H228.101C228.355 47.58 228.528 47.6267 228.621 47.72C228.728 47.8133 228.795 47.9133 228.821 48.02C228.848 48.14 228.848 48.2467 228.821 48.34C228.808 48.42 228.801 48.46 228.801 48.46L224.421 59.38C224.128 60.0867 223.741 60.5333 223.261 60.72C222.795 60.9067 222.301 60.9933 221.781 60.98C220.861 60.9533 220.135 60.6667 219.601 60.12C219.068 59.5733 218.801 58.8533 218.801 57.96H220.921C220.921 58.04 220.915 58.1133 220.901 58.18C220.901 58.26 220.901 58.3333 220.901 58.4C220.901 58.4667 220.901 58.5267 220.901 58.58C220.901 58.6467 220.908 58.7067 220.921 58.76C220.961 59.0133 221.075 59.2 221.261 59.32C221.448 59.4533 221.641 59.52 221.841 59.52C222.041 59.5333 222.228 59.4867 222.401 59.38C222.575 59.2867 222.721 59.1067 222.841 58.84L223.681 56.86L220.721 50.18C220.615 49.9667 220.515 49.76 220.421 49.56C220.341 49.36 220.248 49.1933 220.141 49.06C220.035 48.9133 219.901 48.8 219.741 48.72C219.595 48.6267 219.415 48.58 219.201 48.58Z" fill="white"/>
<path d="M372.56 43.5V45.32C372.08 45.0933 371.567 44.88 371.02 44.68C370.473 44.48 369.8 44.38 369 44.38C368.307 44.38 367.747 44.5467 367.32 44.88C366.907 45.2 366.7 45.66 366.7 46.26C366.7 46.7533 366.82 47.1733 367.06 47.52C367.3 47.8533 367.727 48.2133 368.34 48.6C368.767 48.88 369.273 49.16 369.86 49.44C370.447 49.72 371.007 50.04 371.54 50.4C372.073 50.76 372.527 51.1867 372.9 51.68C373.273 52.16 373.46 52.7467 373.46 53.44C373.46 54.44 373.173 55.28 372.6 55.96C372.027 56.6267 371.227 57.0867 370.2 57.34C369.72 57.46 369.227 57.5333 368.72 57.56C368.227 57.6 367.753 57.6067 367.3 57.58C366.847 57.54 366.427 57.48 366.04 57.4C365.667 57.3333 365.373 57.2467 365.16 57.14C364.88 57.0333 364.693 56.8667 364.6 56.64C364.507 56.4 364.48 56.18 364.52 55.98C364.56 55.7667 364.667 55.6067 364.84 55.5C365.013 55.38 365.24 55.3733 365.52 55.48C365.8 55.6133 366.153 55.74 366.58 55.86C367.007 55.9667 367.447 56.04 367.9 56.08C368.353 56.12 368.8 56.1067 369.24 56.04C369.693 55.9733 370.087 55.8133 370.42 55.56C370.647 55.4 370.853 55.16 371.04 54.84C371.227 54.5067 371.32 54.1267 371.32 53.7C371.32 53.2867 371.173 52.9333 370.88 52.64C370.6 52.3333 370.24 52.0467 369.8 51.78C369.347 51.5133 368.833 51.24 368.26 50.96C367.687 50.6667 367.113 50.3133 366.54 49.9C365.967 49.5 365.5 49.06 365.14 48.58C364.78 48.0867 364.6 47.44 364.6 46.64C364.6 45.4133 365.04 44.5 365.92 43.9C366.8 43.3 367.92 43 369.28 43C369.613 43 369.933 43.02 370.24 43.06C370.56 43.0867 370.853 43.1267 371.12 43.18C371.4 43.2333 371.66 43.2933 371.9 43.36C372.14 43.4133 372.36 43.46 372.56 43.5ZM377.64 51.46V52.96C377.64 53.2533 377.68 53.5867 377.76 53.96C377.853 54.3333 378 54.6933 378.2 55.04C378.4 55.3733 378.647 55.66 378.94 55.9C379.247 56.1267 379.613 56.24 380.04 56.24C380.507 56.24 380.9 56.1267 381.22 55.9C381.553 55.6733 381.82 55.3733 382.02 55C382.22 54.64 382.367 54.2333 382.46 53.78C382.553 53.3267 382.6 52.88 382.6 52.44C382.6 52.0533 382.553 51.64 382.46 51.2C382.367 50.76 382.22 50.3533 382.02 49.98C381.82 49.62 381.553 49.32 381.22 49.08C380.887 48.8267 380.48 48.7 380 48.7C379.453 48.7 378.933 48.94 378.44 49.42C377.947 49.9 377.68 50.58 377.64 51.46ZM377.62 48.42V48.64C377.673 48.5467 377.773 48.4267 377.92 48.28C378.08 48.1333 378.273 47.9933 378.5 47.86C378.713 47.74 378.967 47.6333 379.26 47.54C379.553 47.4333 379.873 47.38 380.22 47.38C380.833 47.38 381.407 47.4933 381.94 47.72C382.487 47.9467 382.96 48.2733 383.36 48.7C383.747 49.14 384.053 49.6733 384.28 50.3C384.52 50.9133 384.64 51.6133 384.64 52.4C384.64 53.08 384.553 53.74 384.38 54.38C384.22 55.0067 383.967 55.56 383.62 56.04C383.273 56.52 382.82 56.9 382.26 57.18C381.7 57.4733 381.033 57.62 380.26 57.62C379.58 57.62 379.007 57.46 378.54 57.14C378.073 56.8333 377.773 56.5467 377.64 56.28V61.06H375.66V50.3C375.66 50.1267 375.653 49.9733 375.64 49.84C375.64 49.6933 375.627 49.56 375.6 49.44C375.587 49.32 375.547 49.22 375.48 49.14C375.427 49.0467 375.353 48.96 375.26 48.88C375.167 48.8267 375.053 48.7867 374.92 48.76C374.8 48.72 374.68 48.7 374.56 48.7C374.36 48.7 374.207 48.64 374.1 48.52C374.007 48.4 373.96 48.26 373.96 48.1C373.96 47.9667 374.007 47.8467 374.1 47.74C374.207 47.6333 374.327 47.58 374.46 47.58H376.56C376.88 47.58 377.133 47.66 377.32 47.82C377.52 47.98 377.62 48.18 377.62 48.42ZM392.371 57.42V56.34C392.011 56.74 391.558 57.0533 391.011 57.28C390.478 57.52 389.771 57.64 388.891 57.64C388.078 57.64 387.418 57.3867 386.911 56.88C386.405 56.3733 386.151 55.72 386.151 54.92C386.151 54.2533 386.318 53.6933 386.651 53.24C386.998 52.7867 387.431 52.42 387.951 52.14C388.471 51.86 389.038 51.66 389.651 51.54C390.278 51.42 390.871 51.36 391.431 51.36C391.511 51.36 391.605 51.36 391.711 51.36C391.818 51.36 391.918 51.3533 392.011 51.34C392.105 51.34 392.185 51.34 392.251 51.34C392.318 51.3267 392.358 51.32 392.371 51.32V50.8C392.371 50.56 392.338 50.3133 392.271 50.06C392.205 49.7933 392.098 49.56 391.951 49.36C391.791 49.1467 391.578 48.9733 391.311 48.84C391.045 48.7067 390.711 48.64 390.311 48.64C389.711 48.64 389.245 48.7867 388.911 49.08C388.578 49.3733 388.411 49.8 388.411 50.36H386.271C386.271 50.0267 386.345 49.6867 386.491 49.34C386.651 48.98 386.905 48.6533 387.251 48.36C387.585 48.08 388.011 47.8467 388.531 47.66C389.051 47.4733 389.671 47.38 390.391 47.38C391.631 47.38 392.598 47.6933 393.291 48.32C393.985 48.9333 394.331 49.78 394.331 50.86V57.42H392.371ZM392.371 53.9V52.58C392.105 52.58 391.778 52.5933 391.391 52.62C391.005 52.6333 390.625 52.68 390.251 52.76C389.705 52.8933 389.238 53.1067 388.851 53.4C388.465 53.6933 388.271 54.1333 388.271 54.72C388.271 54.8533 388.285 55.0067 388.311 55.18C388.351 55.34 388.425 55.4867 388.531 55.62C388.638 55.7667 388.785 55.8867 388.971 55.98C389.158 56.0733 389.405 56.12 389.711 56.12C390.045 56.12 390.365 56.0733 390.671 55.98C390.991 55.8733 391.278 55.72 391.531 55.52C391.785 55.3333 391.985 55.1067 392.131 54.84C392.291 54.56 392.371 54.2467 392.371 53.9ZM399.262 57.42H397.282V50.44C397.282 49.9733 397.262 49.6267 397.222 49.4C397.195 49.1733 397.089 49 396.902 48.88C396.809 48.84 396.695 48.8 396.562 48.76C396.442 48.72 396.322 48.7 396.202 48.7C396.002 48.7 395.849 48.64 395.742 48.52C395.649 48.4 395.602 48.26 395.602 48.1C395.602 47.9667 395.662 47.8467 395.782 47.74C395.915 47.6333 396.049 47.58 396.182 47.58H398.202C398.522 47.58 398.775 47.7 398.962 47.94C399.162 48.1667 399.262 48.3933 399.262 48.62V57.42ZM396.642 44.54C396.642 44.18 396.775 43.86 397.042 43.58C397.322 43.3 397.655 43.16 398.042 43.16C398.415 43.16 398.742 43.3 399.022 43.58C399.302 43.86 399.442 44.18 399.442 44.54C399.442 44.9133 399.302 45.24 399.022 45.52C398.742 45.7867 398.415 45.92 398.042 45.92C397.655 45.92 397.322 45.7867 397.042 45.52C396.775 45.24 396.642 44.9133 396.642 44.54ZM404.337 48.44V49.58C404.391 49.4467 404.504 49.26 404.677 49.02C404.851 48.78 405.077 48.5467 405.357 48.32C405.651 48.08 405.997 47.8733 406.397 47.7C406.797 47.5133 407.271 47.4133 407.817 47.4C408.777 47.3867 409.544 47.6467 410.117 48.18C410.691 48.7 410.977 49.32 410.977 50.04V57.42H409.017V51.02C409.017 50.5 408.897 50.04 408.657 49.64C408.431 49.2267 407.977 49.0267 407.297 49.04C406.964 49.0533 406.617 49.1733 406.257 49.4C405.911 49.6133 405.591 49.8867 405.297 50.22C405.017 50.5667 404.784 50.9533 404.597 51.38C404.411 51.7933 404.317 52.2067 404.317 52.62V57.42H402.357V50.3C402.357 50.1267 402.351 49.9733 402.337 49.84C402.337 49.6933 402.324 49.56 402.297 49.44C402.284 49.32 402.244 49.22 402.177 49.14C402.124 49.0467 402.051 48.96 401.957 48.88C401.864 48.8133 401.751 48.7667 401.617 48.74C401.497 48.7 401.377 48.68 401.257 48.68C401.057 48.68 400.904 48.6267 400.797 48.52C400.704 48.4 400.657 48.26 400.657 48.1C400.657 47.9667 400.704 47.8467 400.797 47.74C400.904 47.6333 401.024 47.58 401.157 47.58H403.277C403.597 47.58 403.851 47.6933 404.037 47.92C404.237 48.1333 404.337 48.3067 404.337 48.44Z" fill="white"/>
<path d="M528.5 43.28H538.32L538.42 45.98C538.42 46.14 538.36 46.26 538.24 46.34C538.133 46.42 538.007 46.46 537.86 46.46C537.727 46.4733 537.6 46.4467 537.48 46.38C537.36 46.3 537.3 46.18 537.3 46.02C537.3 46.02 537.267 45.8933 537.2 45.64C537.147 45.3867 537.06 45.18 536.94 45.02C536.86 44.9133 536.72 44.8267 536.52 44.76C536.333 44.68 536.027 44.64 535.6 44.64H532.86C532.38 44.64 532.08 44.7467 531.96 44.96C531.84 45.16 531.78 45.44 531.78 45.8V49.38H534.74C534.913 49.38 535.073 49.3733 535.22 49.36C535.38 49.3333 535.527 49.3 535.66 49.26C535.953 49.18 536.167 49.06 536.3 48.9C536.433 48.74 536.5 48.4333 536.5 47.98C536.5 47.8867 536.553 47.8133 536.66 47.76C536.767 47.6933 536.893 47.66 537.04 47.66C537.173 47.66 537.293 47.6867 537.4 47.74C537.52 47.7933 537.58 47.8667 537.58 47.96V52.22C537.58 52.3267 537.52 52.4067 537.4 52.46C537.28 52.5 537.153 52.52 537.02 52.52C536.873 52.52 536.74 52.5 536.62 52.46C536.513 52.4067 536.46 52.3267 536.46 52.22C536.46 52.22 536.44 52.0867 536.4 51.82C536.373 51.5533 536.273 51.32 536.1 51.12C535.993 51 535.847 50.9133 535.66 50.86C535.473 50.7933 535.167 50.76 534.74 50.76H531.78V55.02C531.78 55.42 531.853 55.7 532 55.86C532.16 56.0067 532.6 56.08 533.32 56.08H536.04C536.36 56.08 536.593 56.06 536.74 56.02C536.9 55.9667 537.053 55.86 537.2 55.7C537.267 55.62 537.327 55.5333 537.38 55.44C537.433 55.3467 537.473 55.2467 537.5 55.14C537.54 55.0333 537.567 54.9267 537.58 54.82C537.607 54.7 537.633 54.5867 537.66 54.48C537.687 54.32 537.76 54.2067 537.88 54.14C538 54.0733 538.133 54.0467 538.28 54.06C538.413 54.0733 538.533 54.1267 538.64 54.22C538.747 54.3 538.8 54.4067 538.8 54.54L538.66 57.42H529.76V46.02C529.76 45.4867 529.673 45.0933 529.5 44.84C529.34 44.5867 529.027 44.44 528.56 44.4C528.36 44.4 528.213 44.3333 528.12 44.2C528.04 44.0667 528 43.94 528 43.82C528 43.6867 528.053 43.5667 528.16 43.46C528.267 43.34 528.38 43.28 528.5 43.28ZM543.162 48.44V49.58C543.215 49.4467 543.328 49.26 543.502 49.02C543.675 48.78 543.902 48.5467 544.182 48.32C544.475 48.08 544.822 47.8733 545.222 47.7C545.622 47.5133 546.095 47.4133 546.642 47.4C547.602 47.3867 548.368 47.6467 548.942 48.18C549.515 48.7 549.802 49.32 549.802 50.04V57.42H547.842V51.02C547.842 50.5 547.722 50.04 547.482 49.64C547.255 49.2267 546.802 49.0267 546.122 49.04C545.788 49.0533 545.442 49.1733 545.082 49.4C544.735 49.6133 544.415 49.8867 544.122 50.22C543.842 50.5667 543.608 50.9533 543.422 51.38C543.235 51.7933 543.142 52.2067 543.142 52.62V57.42H541.182V50.3C541.182 50.1267 541.175 49.9733 541.162 49.84C541.162 49.6933 541.148 49.56 541.122 49.44C541.108 49.32 541.068 49.22 541.002 49.14C540.948 49.0467 540.875 48.96 540.782 48.88C540.688 48.8133 540.575 48.7667 540.442 48.74C540.322 48.7 540.202 48.68 540.082 48.68C539.882 48.68 539.728 48.6267 539.622 48.52C539.528 48.4 539.482 48.26 539.482 48.1C539.482 47.9667 539.528 47.8467 539.622 47.74C539.728 47.6333 539.848 47.58 539.982 47.58H542.102C542.422 47.58 542.675 47.6933 542.862 47.92C543.062 48.1333 543.162 48.3067 543.162 48.44ZM558.908 52.86V51.98C558.908 51.6867 558.861 51.36 558.768 51C558.688 50.6267 558.548 50.28 558.348 49.96C558.148 49.64 557.881 49.3667 557.548 49.14C557.228 48.9133 556.834 48.8 556.368 48.8C555.901 48.8 555.501 48.9067 555.168 49.12C554.848 49.32 554.574 49.5867 554.348 49.92C554.134 50.2533 553.974 50.64 553.868 51.08C553.774 51.52 553.728 51.9733 553.728 52.44C553.728 52.88 553.774 53.3 553.868 53.7C553.974 54.1 554.141 54.4533 554.368 54.76C554.594 55.0667 554.881 55.3133 555.228 55.5C555.574 55.6733 555.994 55.76 556.488 55.76C556.781 55.76 557.074 55.6867 557.368 55.54C557.661 55.3933 557.921 55.1933 558.148 54.94C558.374 54.6733 558.554 54.3667 558.688 54.02C558.834 53.66 558.908 53.2733 558.908 52.86ZM560.868 49.94V57.28C560.868 57.9733 560.754 58.56 560.528 59.04C560.301 59.5333 559.988 59.9333 559.588 60.24C559.188 60.5467 558.708 60.7667 558.148 60.9C557.601 61.0467 557.008 61.12 556.368 61.12C554.968 61.12 553.934 60.8467 553.268 60.3C552.601 59.7667 552.228 59.0667 552.148 58.2H554.208C554.261 58.6667 554.448 59.0467 554.768 59.34C555.101 59.6333 555.694 59.78 556.548 59.78C557.014 59.78 557.401 59.7067 557.708 59.56C558.014 59.4267 558.254 59.24 558.428 59C558.601 58.76 558.721 58.4867 558.788 58.18C558.868 57.8733 558.908 57.56 558.908 57.24V55.94C558.841 56.0333 558.741 56.1533 558.608 56.3C558.488 56.4333 558.321 56.56 558.108 56.68C557.881 56.8133 557.601 56.92 557.268 57C556.948 57.0933 556.561 57.14 556.108 57.14C555.508 57.14 554.934 57.0333 554.388 56.82C553.854 56.6067 553.388 56.2933 552.988 55.88C552.588 55.4667 552.268 54.9733 552.028 54.4C551.801 53.8133 551.688 53.16 551.688 52.44C551.688 51.76 551.781 51.12 551.968 50.52C552.154 49.9067 552.434 49.3667 552.808 48.9C553.181 48.4333 553.641 48.0667 554.188 47.8C554.748 47.52 555.394 47.38 556.128 47.38C556.488 47.38 556.821 47.4267 557.128 47.52C557.448 47.6133 557.734 47.7267 557.988 47.86C558.241 47.9933 558.448 48.14 558.608 48.3C558.768 48.46 558.868 48.6067 558.908 48.74V48.08C558.908 47.9867 558.981 47.88 559.128 47.76C559.274 47.64 559.448 47.58 559.648 47.58H561.988C562.094 47.58 562.194 47.6333 562.288 47.74C562.381 47.8467 562.428 47.9733 562.428 48.12C562.414 48.28 562.354 48.4 562.248 48.48C562.141 48.56 562.028 48.6 561.908 48.6C561.628 48.6 561.381 48.6867 561.168 48.86C560.968 49.02 560.868 49.38 560.868 49.94ZM566.289 44.04V57.42H564.309V45.7C564.309 45.54 564.303 45.3933 564.289 45.26C564.289 45.1133 564.276 44.98 564.249 44.86C564.236 44.74 564.196 44.64 564.129 44.56C564.076 44.4667 564.003 44.38 563.909 44.3C563.816 44.2333 563.703 44.18 563.569 44.14C563.449 44.1 563.329 44.08 563.209 44.08C563.009 44.08 562.856 44.0267 562.749 43.92C562.656 43.8133 562.609 43.68 562.609 43.52C562.609 43.3867 562.656 43.2667 562.749 43.16C562.856 43.0533 562.976 43 563.109 43H565.229C565.549 43 565.803 43.12 565.989 43.36C566.189 43.5867 566.289 43.8133 566.289 44.04ZM575.18 57.42V56.34C574.82 56.74 574.367 57.0533 573.82 57.28C573.287 57.52 572.58 57.64 571.7 57.64C570.887 57.64 570.227 57.3867 569.72 56.88C569.213 56.3733 568.96 55.72 568.96 54.92C568.96 54.2533 569.127 53.6933 569.46 53.24C569.807 52.7867 570.24 52.42 570.76 52.14C571.28 51.86 571.847 51.66 572.46 51.54C573.087 51.42 573.68 51.36 574.24 51.36C574.32 51.36 574.413 51.36 574.52 51.36C574.627 51.36 574.727 51.3533 574.82 51.34C574.913 51.34 574.993 51.34 575.06 51.34C575.127 51.3267 575.167 51.32 575.18 51.32V50.8C575.18 50.56 575.147 50.3133 575.08 50.06C575.013 49.7933 574.907 49.56 574.76 49.36C574.6 49.1467 574.387 48.9733 574.12 48.84C573.853 48.7067 573.52 48.64 573.12 48.64C572.52 48.64 572.053 48.7867 571.72 49.08C571.387 49.3733 571.22 49.8 571.22 50.36H569.08C569.08 50.0267 569.153 49.6867 569.3 49.34C569.46 48.98 569.713 48.6533 570.06 48.36C570.393 48.08 570.82 47.8467 571.34 47.66C571.86 47.4733 572.48 47.38 573.2 47.38C574.44 47.38 575.407 47.6933 576.1 48.32C576.793 48.9333 577.14 49.78 577.14 50.86V57.42H575.18ZM575.18 53.9V52.58C574.913 52.58 574.587 52.5933 574.2 52.62C573.813 52.6333 573.433 52.68 573.06 52.76C572.513 52.8933 572.047 53.1067 571.66 53.4C571.273 53.6933 571.08 54.1333 571.08 54.72C571.08 54.8533 571.093 55.0067 571.12 55.18C571.16 55.34 571.233 55.4867 571.34 55.62C571.447 55.7667 571.593 55.8867 571.78 55.98C571.967 56.0733 572.213 56.12 572.52 56.12C572.853 56.12 573.173 56.0733 573.48 55.98C573.8 55.8733 574.087 55.72 574.34 55.52C574.593 55.3333 574.793 55.1067 574.94 54.84C575.1 54.56 575.18 54.2467 575.18 53.9ZM581.951 48.44V49.58C582.004 49.4467 582.117 49.26 582.291 49.02C582.464 48.78 582.691 48.5467 582.971 48.32C583.264 48.08 583.611 47.8733 584.011 47.7C584.411 47.5133 584.884 47.4133 585.431 47.4C586.391 47.3867 587.157 47.6467 587.731 48.18C588.304 48.7 588.591 49.32 588.591 50.04V57.42H586.631V51.02C586.631 50.5 586.511 50.04 586.271 49.64C586.044 49.2267 585.591 49.0267 584.911 49.04C584.577 49.0533 584.231 49.1733 583.871 49.4C583.524 49.6133 583.204 49.8867 582.911 50.22C582.631 50.5667 582.397 50.9533 582.211 51.38C582.024 51.7933 581.931 52.2067 581.931 52.62V57.42H579.971V50.3C579.971 50.1267 579.964 49.9733 579.951 49.84C579.951 49.6933 579.937 49.56 579.911 49.44C579.897 49.32 579.857 49.22 579.791 49.14C579.737 49.0467 579.664 48.96 579.571 48.88C579.477 48.8133 579.364 48.7667 579.231 48.74C579.111 48.7 578.991 48.68 578.871 48.68C578.671 48.68 578.517 48.6267 578.411 48.52C578.317 48.4 578.271 48.26 578.271 48.1C578.271 47.9667 578.317 47.8467 578.411 47.74C578.517 47.6333 578.637 47.58 578.771 47.58H580.891C581.211 47.58 581.464 47.6933 581.651 47.92C581.851 48.1333 581.951 48.3067 581.951 48.44ZM597.617 52.92C597.617 52.32 597.61 51.9067 597.597 51.68C597.584 51.44 597.557 51.2133 597.517 51C597.424 50.4267 597.17 49.9067 596.757 49.44C596.344 48.9733 595.777 48.74 595.057 48.74C594.204 48.74 593.564 49.1067 593.137 49.84C592.724 50.56 592.517 51.46 592.517 52.54C592.517 52.98 592.557 53.4267 592.637 53.88C592.73 54.32 592.877 54.72 593.077 55.08C593.277 55.44 593.544 55.7333 593.877 55.96C594.21 56.1867 594.617 56.3 595.097 56.3C595.484 56.3 595.83 56.2 596.137 56C596.457 55.8 596.724 55.54 596.937 55.22C597.15 54.9 597.317 54.54 597.437 54.14C597.557 53.74 597.617 53.3333 597.617 52.92ZM599.577 44.04V57.42H597.617V56.44C597.55 56.5067 597.457 56.6067 597.337 56.74C597.23 56.8733 597.07 57 596.857 57.12C596.644 57.2533 596.37 57.3667 596.037 57.46C595.704 57.5667 595.29 57.62 594.797 57.62C594.184 57.62 593.61 57.5067 593.077 57.28C592.544 57.0533 592.077 56.72 591.677 56.28C591.29 55.84 590.984 55.3067 590.757 54.68C590.53 54.0533 590.417 53.34 590.417 52.54C590.417 51.8733 590.51 51.2333 590.697 50.62C590.897 49.9933 591.184 49.44 591.557 48.96C591.93 48.48 592.377 48.1 592.897 47.82C593.43 47.5267 594.037 47.38 594.717 47.38C595.557 47.38 596.224 47.5333 596.717 47.84C597.21 48.1333 597.51 48.36 597.617 48.52V45.6C597.617 45.4667 597.61 45.34 597.597 45.22C597.597 45.0867 597.584 44.96 597.557 44.84C597.544 44.7333 597.504 44.64 597.437 44.56C597.384 44.4667 597.31 44.38 597.217 44.3C597.124 44.2467 597.01 44.2 596.877 44.16C596.757 44.1067 596.637 44.08 596.517 44.08C596.317 44.08 596.164 44.0267 596.057 43.92C595.964 43.8133 595.917 43.68 595.917 43.52C595.917 43.3867 595.964 43.2667 596.057 43.16C596.164 43.0533 596.284 43 596.417 43H598.517C598.837 43 599.09 43.12 599.277 43.36C599.477 43.5867 599.577 43.8133 599.577 44.04Z" fill="white"/>
</svg>
